<svg width="160" height="48" viewBox="0 0 160 48" fill="none" xmlns="http://www.w3.org/2000/svg">
<path opacity="0.8" d="M22 2C9.84969 2 0 11.8497 0 24C0 36.1503 9.84969 46 22 46C32.901 46 41.9502 38.0716 43.6958 27.6667H43.5379C41.9098 33.9925 36.1674 38.6667 29.3333 38.6667C21.2332 38.6667 14.6667 32.1002 14.6667 24C14.6667 15.8998 21.2332 9.33333 29.3333 9.33333C36.1674 9.33333 41.9098 14.0075 43.5379 20.3333H43.6958C41.9502 9.92838 32.901 2 22 2Z" fill="white"/>
<path d="M0 24C0 11.8497 9.84974 2 22 2C32.901 2 41.9502 9.92838 43.6958 20.3333H28.8713C27.2431 14.0075 21.5007 9.33333 14.6667 9.33333C6.56649 9.33333 0 15.8998 0 24Z" fill="white"/>
<path d="M0 24C0 36.1503 9.84974 46 22 46C32.901 46 41.9502 38.0716 43.6958 27.6667H28.8713C27.2431 33.9925 21.5007 38.6667 14.6667 38.6667C6.56649 38.6667 0 32.1002 0 24Z" fill="white"/>
<path d="M75.4389 20.5071C74.8125 15.983 71.3324 13.358 66.8182 13.358C61.4986 13.358 57.4915 17.2358 57.4915 23.8182C57.4915 30.3906 61.4489 34.2784 66.8182 34.2784C71.6605 34.2784 74.8721 31.1463 75.4389 27.2585L71.7202 27.2387C71.2528 29.625 69.304 30.9673 66.8679 30.9673C63.5668 30.9673 61.2003 28.4915 61.2003 23.8182C61.2003 19.2244 63.5469 16.6691 66.8778 16.6691C69.3537 16.6691 71.2926 18.071 71.7202 20.5071H75.4389Z" fill="white"/>
<path d="M83.0529 34.3083C85.4492 34.3083 86.881 33.1847 87.5373 31.902H87.6566V34H91.1168V23.7784C91.1168 19.7415 87.8256 18.5284 84.9123 18.5284C81.7006 18.5284 79.2347 19.9602 78.4393 22.7443L81.8001 23.2216C82.158 22.1776 83.1722 21.2827 84.9322 21.2827C86.6026 21.2827 87.5174 22.1378 87.5174 23.6392V23.6989C87.5174 24.733 86.4336 24.7827 83.739 25.071C80.7759 25.3892 77.9421 26.2742 77.9421 29.7145C77.9421 32.7174 80.1395 34.3083 83.0529 34.3083ZM83.9876 31.6634C82.4861 31.6634 81.4123 30.9773 81.4123 29.6548C81.4123 28.2727 82.6154 27.696 84.2262 27.4673C85.1708 27.3381 87.06 27.0994 87.5273 26.7216V28.5213C87.5273 30.2216 86.1552 31.6634 83.9876 31.6634Z" fill="white"/>
<path d="M102.363 18.7273H99.3498V15.0682H95.7503V18.7273H93.5827V21.5114H95.7503V30.0029C95.7304 32.8764 97.8185 34.2884 100.523 34.2088C101.547 34.179 102.253 33.9801 102.641 33.8509L102.034 31.037C101.836 31.0867 101.428 31.1762 100.98 31.1762C100.076 31.1762 99.3498 30.858 99.3498 29.4063V21.5114H102.363V18.7273Z" fill="white"/>
<path d="M109.768 34.3083C112.164 34.3083 113.596 33.1847 114.252 31.902H114.371V34H117.832V23.7784C117.832 19.7415 114.54 18.5284 111.627 18.5284C108.415 18.5284 105.95 19.9602 105.154 22.7443L108.515 23.2216C108.873 22.1776 109.887 21.2827 111.647 21.2827C113.317 21.2827 114.232 22.1378 114.232 23.6392V23.6989C114.232 24.733 113.148 24.7827 110.454 25.071C107.491 25.3892 104.657 26.2742 104.657 29.7145C104.657 32.7174 106.854 34.3083 109.768 34.3083ZM110.702 31.6634C109.201 31.6634 108.127 30.9773 108.127 29.6548C108.127 28.2727 109.33 27.696 110.941 27.4673C111.886 27.3381 113.775 27.0994 114.242 26.7216V28.5213C114.242 30.2216 112.87 31.6634 110.702 31.6634Z" fill="white"/>
<path d="M125.05 13.6364H121.451V34H125.05V13.6364Z" fill="white"/>
<path d="M135.414 34.2983C139.888 34.2983 142.732 31.1463 142.732 26.4233C142.732 21.6904 139.888 18.5284 135.414 18.5284C130.939 18.5284 128.095 21.6904 128.095 26.4233C128.095 31.1463 130.939 34.2983 135.414 34.2983ZM135.434 31.4148C132.958 31.4148 131.745 29.2074 131.745 26.4134C131.745 23.6193 132.958 21.3821 135.434 21.3821C137.87 21.3821 139.083 23.6193 139.083 26.4134C139.083 29.2074 137.87 31.4148 135.434 31.4148Z" fill="white"/>
<path d="M152.429 40.0455C156.555 40.0455 159.598 38.1563 159.598 34.2486V18.7273H156.048V21.2529H155.849C155.303 20.1492 154.159 18.5284 151.464 18.5284C147.935 18.5284 145.16 21.2926 145.16 26.3139C145.16 31.2955 147.935 33.7813 151.455 33.7813C154.07 33.7813 155.293 32.3793 155.849 31.2557H156.028V34.1492C156.028 36.3963 154.537 37.321 152.489 37.321C150.321 37.321 149.366 36.2969 148.929 35.402L145.687 36.1875C146.344 38.3253 148.541 40.0455 152.429 40.0455ZM152.459 30.9574C150.082 30.9574 148.83 29.108 148.83 26.2941C148.83 23.5199 150.062 21.4816 152.459 21.4816C154.776 21.4816 156.048 23.4006 156.048 26.2941C156.048 29.2074 154.756 30.9574 152.459 30.9574Z" fill="white"/>
</svg>
